# xmcd
#
# Track frame offsets:
#	150
#	9406
#	29210
#	39920
#	54011
#	63596
#	79897
#	93069
#	108134
#	123640
#	139177
#	153973
#
# Disc length: 2409 seconds
#
# Revision: 1
# Processed by: cddbd v1.5.2PL0 Copyright (c) Steve Scherf et al.
# Submitted via: audiograbber 1.83.01
#
DISCID=9009670c
DTITLE=George Jones - Pasadena
DYEAR=1984
DGENRE=Country
TTITLE0=The Race Is On
TTITLE1=Bartender Blues
TTITLE2=I Didn't See You
TTITLE3=Tenn. Whiskey
TTITLE4=Back Up And Push
TTITLE5=I'm Not Ready Yet
TTITLE6=You Better Start Treating Your Man A Little Bit Better
TTITLE7=If Drinking Don't Kill Me (Her Memory Will)
TTITLE8=You Still Got A Place In My Heart
TTITLE9=He Stopped Loving Her Today
TTITLE10=White Lighting
TTITLE11=I'll Share My World With You-The Window Up Above-The Grand Tour-Walk T
TTITLE11=hrough This World With Me
EXTD=
EXTT0=
EXTT1=
EXTT2=
EXTT3=
EXTT4=
EXTT5=
EXTT6=
EXTT7=
EXTT8=
EXTT9=
EXTT10=
EXTT11=
PLAYORDER=
